<svg width="50" height="50" viewBox="0 0 50 50" fill="none" xmlns="http://www.w3.org/2000/svg">
<circle cx="25" cy="25" r="25" fill="#404E6B"/>
<path d="M14.0625 13.75C14.9268 13.75 15.625 14.4482 15.625 15.3125V31.7188C15.625 32.1484 15.9766 32.5 16.4062 32.5H35.9375C36.8018 32.5 37.5 33.1982 37.5 34.0625C37.5 34.9268 36.8018 35.625 35.9375 35.625H16.4062C14.248 35.625 12.5 33.877 12.5 31.7188V15.3125C12.5 14.4482 13.1982 13.75 14.0625 13.75ZM18.75 18.4375C18.75 17.5732 19.4482 16.875 20.3125 16.875H29.6875C30.5518 16.875 31.25 17.5732 31.25 18.4375C31.25 19.3018 30.5518 20 29.6875 20H20.3125C19.4482 20 18.75 19.3018 18.75 18.4375ZM20.3125 21.5625H26.5625C27.4268 21.5625 28.125 22.2607 28.125 23.125C28.125 23.9893 27.4268 24.6875 26.5625 24.6875H20.3125C19.4482 24.6875 18.75 23.9893 18.75 23.125C18.75 22.2607 19.4482 21.5625 20.3125 21.5625ZM20.3125 26.25H32.8125C33.6768 26.25 34.375 26.9482 34.375 27.8125C34.375 28.6768 33.6768 29.375 32.8125 29.375H20.3125C19.4482 29.375 18.75 28.6768 18.75 27.8125C18.75 26.9482 19.4482 26.25 20.3125 26.25Z" fill="white"/>
</svg>
