<svg width="50" height="50" viewBox="0 0 50 50" fill="none" xmlns="http://www.w3.org/2000/svg">
<circle cx="25" cy="25" r="25" fill="#404E6B"/>
<path d="M10.7143 16.0714C10.7143 14.1016 12.3158 12.5 14.2857 12.5H35.7143C37.6841 12.5 39.2857 14.1016 39.2857 16.0714V30.3571H35.7143V16.0714H14.2857V30.3571H10.7143V16.0714ZM7.14285 33.2143C7.14285 32.6228 7.62276 32.1429 8.21428 32.1429H41.7857C42.3772 32.1429 42.8571 32.6228 42.8571 33.2143C42.8571 35.5804 40.9375 37.5 38.5714 37.5H11.4286C9.0625 37.5 7.14285 35.5804 7.14285 33.2143ZM22.8237 22.3772L21.0937 24.1071L22.8237 25.8371C23.3482 26.3616 23.3482 27.2098 22.8237 27.7288C22.2991 28.2478 21.4509 28.2533 20.9319 27.7288L18.2533 25.0502C17.7288 24.5257 17.7288 23.6775 18.2533 23.1585L20.9319 20.4799C21.4565 19.9554 22.3047 19.9554 22.8237 20.4799C23.3426 21.0045 23.3482 21.8527 22.8237 22.3717V22.3772ZM29.0737 20.4799L31.7522 23.1585C32.2768 23.683 32.2768 24.5313 31.7522 25.0502L29.0737 27.7288C28.5491 28.2533 27.7009 28.2533 27.1819 27.7288C26.6629 27.2042 26.6574 26.356 27.1819 25.8371L28.9118 24.1071L27.1819 22.3772C26.6574 21.8527 26.6574 21.0045 27.1819 20.4855C27.7065 19.9665 28.5547 19.9609 29.0737 20.4855V20.4799Z" fill="white"/>
</svg>
