<svg width="550" height="28" viewBox="0 0 550 28" fill="none" xmlns="http://www.w3.org/2000/svg">
<g clip-path="url(#clip0_40_2)">
<path d="M16.6535 24.35C16.9277 24.44 17.1615 24.71 17.4599 24.59C18.0325 24.36 18.1616 24.87 18.2664 25.22C18.4017 25.5512 18.4526 25.9257 18.4123 26.2936C18.372 26.6616 18.2423 27.0056 18.0406 27.28C17.6051 27.91 17.2825 27.63 16.7583 27.57C16.0486 27.47 15.1454 26.91 15.218 26.01C15.2703 25.6603 15.4083 25.339 15.6131 25.09C15.7075 24.8785 15.8241 24.6835 15.9599 24.51C16.0783 24.4195 16.2098 24.3583 16.347 24.33C16.4487 24.3015 16.5548 24.3084 16.6535 24.35Z" fill="#404E6B"/>
<path d="M23.0971 25.1C23.2019 24.94 23.4036 24.34 23.702 24.25C25.5568 23.5 25.9601 25.39 25.8794 26.07C25.7988 26.75 25.452 27.49 25.1617 27.54C23.7826 27.77 23.1939 27.07 23.0971 25.1Z" fill="#404E6B"/>
<path d="M1.83067 28C1.78228 28 1.72583 28 1.68551 27.93C1.34967 27.8516 1.01035 27.7982 0.669362 27.77C0.354841 27.7 0.314518 27.56 0.193549 27.17C0.0719775 26.9286 0.00752258 26.6496 0.00752258 26.365C0.00752258 26.0804 0.0719775 25.8014 0.193549 25.56C0.379035 25.09 0.564522 24.92 1.17743 24.64C1.91132 24.29 2.49197 25 2.92746 26.09C2.96118 26.188 2.97856 26.2935 2.97856 26.4C2.97856 26.5065 2.96118 26.612 2.92746 26.71C2.77423 27 2.57262 27.28 2.38713 27.55C2.20164 27.82 2.10487 28 1.83067 28Z" fill="#404E6B"/>
<path d="M9.58885 24.35C10.2824 24.54 10.976 26.14 10.7502 26.58C10.4114 27.21 9.75014 28 9.20981 28C8.66948 28 8.08883 27.16 7.5243 26.69C7.50009 26.3557 7.53848 26.0189 7.63646 25.706C7.73445 25.3931 7.88939 25.1125 8.0892 24.886C8.28902 24.6595 8.52831 24.4933 8.78843 24.4003C9.04855 24.3074 9.32248 24.2901 9.58885 24.35Z" fill="#404E6B"/>
<path d="M47.291 23.56C47.5652 23.65 47.8072 23.92 48.0975 23.8C48.6701 23.56 48.7991 24.06 48.9039 24.41C49.0421 24.7408 49.096 25.1158 49.0586 25.4854C49.0211 25.855 48.8941 26.2018 48.6943 26.48C48.2588 27.11 47.9362 26.84 47.4201 26.78C46.7023 26.69 45.8071 26.14 45.8636 25.24C45.9145 24.8889 46.0494 24.5649 46.2507 24.31C46.3717 24.13 46.4362 23.89 46.5975 23.74C46.7107 23.6422 46.8403 23.5772 46.9765 23.55C47.0804 23.5215 47.1884 23.5249 47.291 23.56Z" fill="#404E6B"/>
<path d="M53.7427 24.25C53.8476 24.09 54.0411 23.49 54.3395 23.4C56.1944 22.63 56.6137 24.52 56.4928 25.2C56.3718 25.88 56.1137 26.62 55.8234 26.67C54.4444 26.92 53.8476 26.22 53.7427 24.25Z" fill="#404E6B"/>
<path d="M32.5005 27.35C32.4427 27.3409 32.386 27.3242 32.3311 27.3C32.003 27.2266 31.6719 27.1765 31.3392 27.15C31.0247 27.08 30.9763 26.95 30.8553 26.56C30.733 26.317 30.6682 26.0364 30.6682 25.75C30.6682 25.4636 30.733 25.1829 30.8553 24.94C31.0327 24.48 31.2182 24.3 31.8311 24.01C32.5731 23.66 33.194 24.32 33.6053 25.45C33.6391 25.548 33.6564 25.6534 33.6564 25.76C33.6564 25.8665 33.6391 25.972 33.6053 26.07C33.4373 26.3648 33.2569 26.6485 33.065 26.92C32.815 27.27 32.7747 27.42 32.5005 27.35Z" fill="#404E6B"/>
<path d="M40.2345 23.63C40.92 23.82 41.6296 25.41 41.4038 25.86C41.0732 26.49 40.3958 27.26 39.8796 27.25C39.3635 27.24 38.7828 26.43 38.186 26C38.1584 25.6653 38.1937 25.3272 38.289 25.0122C38.3844 24.6972 38.5372 24.4138 38.7356 24.1843C38.934 23.9547 39.1726 23.7852 39.4326 23.6891C39.6926 23.5929 39.9671 23.5727 40.2345 23.63Z" fill="#404E6B"/>
<path d="M77.9286 22.47C78.2028 22.56 78.4447 22.82 78.735 22.69C79.3076 22.45 79.4366 22.95 79.5415 23.3C79.6807 23.6298 79.736 24.0043 79.7 24.3738C79.664 24.7434 79.5384 25.0908 79.3399 25.37C78.9124 26.01 78.5818 25.74 78.0657 25.68C77.3479 25.6 76.4527 25.05 76.5011 24.15C76.5486 23.8004 76.6841 23.4783 76.8882 23.23C77.0092 23.04 77.0656 22.8 77.2269 22.65C77.3402 22.5522 77.4697 22.4873 77.606 22.46C77.7114 22.4183 77.825 22.4218 77.9286 22.47Z" fill="#404E6B"/>
<path d="M84.3803 23.08C84.4851 22.92 84.6787 22.32 84.9771 22.22C86.8239 21.43 87.2513 23.32 87.1384 24C87.0255 24.68 86.7674 25.43 86.4851 25.48C85.1061 25.74 84.5012 25 84.3803 23.08Z" fill="#404E6B"/>
<path d="M63.1622 26.4C63.1059 26.4074 63.0492 26.4074 62.9929 26.4C62.662 26.3293 62.3281 26.2825 61.9928 26.26C61.6783 26.19 61.638 26.06 61.509 25.67C61.3883 25.4282 61.3244 25.1494 61.3244 24.865C61.3244 24.5806 61.3883 24.3019 61.509 24.06C61.6783 23.59 61.8638 23.42 62.4767 23.12C63.2187 22.76 63.8396 23.42 64.2671 24.54C64.3008 24.638 64.3182 24.7435 64.3182 24.85C64.3182 24.9566 64.3008 25.062 64.2671 25.16C64.0937 25.452 63.908 25.7324 63.7106 26C63.4767 26.32 63.4364 26.46 63.1622 26.4Z" fill="#404E6B"/>
<path d="M70.872 22.6C71.5575 22.78 72.2833 24.37 72.0575 24.82C71.7269 25.45 71.0575 26.23 70.5333 26.23C70.0091 26.23 69.4284 25.42 68.8317 25C68.8036 24.6648 68.8381 24.3261 68.9324 24.0101C69.0266 23.6941 69.1782 23.4091 69.3754 23.1772C69.5725 22.9453 69.81 22.7726 70.0695 22.6725C70.329 22.5725 70.6035 22.5476 70.872 22.6Z" fill="#404E6B"/>
<path d="M108.558 21C108.832 21.09 109.074 21.35 109.365 21.22C109.929 20.97 110.066 21.47 110.171 21.82C110.312 22.1479 110.37 22.5212 110.337 22.8907C110.304 23.2602 110.181 23.6086 109.985 23.89C109.558 24.53 109.235 24.27 108.711 24.21C107.994 24.14 107.098 23.6 107.139 22.7C107.188 22.3504 107.32 22.0269 107.518 21.77C107.639 21.59 107.695 21.34 107.848 21.19C107.964 21.089 108.096 21.0208 108.235 20.99C108.342 20.9598 108.453 20.9633 108.558 21Z" fill="#404E6B"/>
<path d="M115.01 21.61C115.123 21.44 115.3 20.84 115.607 20.74C117.445 19.93 117.889 21.81 117.776 22.5C117.687 23.04 117.413 23.93 117.131 23.98C115.752 24.25 115.147 23.58 115.01 21.61Z" fill="#404E6B"/>
<path d="M93.8159 25.14C93.7675 25.14 93.7111 25.14 93.6465 25.09C93.3149 25.0359 92.981 25.0058 92.6465 25C92.332 24.94 92.2836 24.81 92.1546 24.42C92.0295 24.182 91.9596 23.9059 91.9525 23.622C91.9454 23.3381 92.0013 23.0572 92.1143 22.81C92.2836 22.34 92.4691 22.16 93.0739 21.86C93.8159 21.49 94.4449 22.14 94.8724 23.26C94.9063 23.3562 94.9239 23.46 94.9239 23.565C94.9239 23.67 94.9063 23.7738 94.8724 23.87C94.7093 24.1673 94.5344 24.4544 94.3482 24.73C94.1304 25 94.0901 25.2 93.8159 25.14Z" fill="#404E6B"/>
<path d="M101.501 21.27C102.187 21.44 102.921 23.02 102.695 23.47C102.381 24.1 101.711 24.89 101.187 24.9C100.663 24.91 100.05 24.1 99.4773 23.65C99.4492 23.3174 99.4832 22.9813 99.5766 22.6677C99.6701 22.354 99.8204 22.0712 100.016 21.8411C100.212 21.611 100.448 21.4399 100.705 21.3408C100.963 21.2418 101.235 21.2176 101.501 21.27Z" fill="#404E6B"/>
<path d="M139.171 19.32C139.454 19.41 139.696 19.67 139.978 19.54C140.55 19.28 140.688 19.78 140.784 20.13C140.929 20.4555 140.99 20.828 140.96 21.1977C140.93 21.5675 140.809 21.9171 140.615 22.2C140.196 22.84 139.865 22.59 139.341 22.54C138.623 22.47 137.728 21.95 137.728 21.05C137.772 20.6975 137.902 20.3698 138.099 20.11C138.192 19.8996 138.303 19.7019 138.429 19.52C138.546 19.4273 138.674 19.3597 138.809 19.32C138.927 19.2775 139.053 19.2775 139.171 19.32Z" fill="#404E6B"/>
<path d="M145.631 19.82C145.736 19.65 145.921 19.05 146.22 18.95C148.051 18.12 148.51 19.95 148.397 20.68C148.284 21.41 148.051 22.12 147.768 22.18C146.389 22.46 145.784 21.79 145.631 19.82Z" fill="#404E6B"/>
<path d="M124.461 23.57C124.401 23.5597 124.342 23.543 124.284 23.52C123.956 23.4558 123.624 23.4157 123.292 23.4C122.978 23.34 122.929 23.21 122.8 22.82C122.67 22.5852 122.596 22.3097 122.586 22.025C122.576 21.7404 122.63 21.458 122.744 21.21C122.913 20.74 123.09 20.56 123.695 20.21C124.437 19.84 125.066 20.48 125.502 21.59C125.537 21.6874 125.556 21.7931 125.556 21.9C125.556 22.0069 125.537 22.1126 125.502 22.21C125.349 22.51 125.155 22.79 124.978 23.08C124.8 23.37 124.736 23.62 124.461 23.57Z" fill="#404E6B"/>
<path d="M132.115 19.61C132.808 19.78 133.55 21.35 133.333 21.8C133.175 22.1548 132.96 22.4662 132.702 22.7154C132.445 22.9647 132.149 23.1465 131.833 23.25C131.268 23.25 130.687 22.46 130.115 22.01C130.085 21.6788 130.117 21.3435 130.208 21.0298C130.298 20.7162 130.446 20.4326 130.639 20.2008C130.833 19.969 131.066 19.7952 131.322 19.6928C131.578 19.5904 131.849 19.5621 132.115 19.61Z" fill="#404E6B"/>
<path d="M169.777 17.29C170.059 17.37 170.301 17.63 170.583 17.5C171.156 17.24 171.293 17.73 171.39 18.08C171.535 18.4045 171.598 18.7764 171.569 19.1461C171.54 19.5159 171.421 19.866 171.228 20.15C170.809 20.8 170.486 20.55 169.962 20.5C169.244 20.5 168.349 19.92 168.349 19.02C168.39 18.6682 168.517 18.3403 168.712 18.08C168.825 17.9 168.882 17.65 169.035 17.5C169.149 17.4 169.278 17.3287 169.414 17.29C169.532 17.2475 169.658 17.2475 169.777 17.29Z" fill="#404E6B"/>
<path d="M176.236 17.71C176.341 17.54 176.519 16.94 176.817 16.83C178.648 15.99 179.116 17.83 179.011 18.55C178.93 19.09 178.672 19.99 178.39 20.05C177.019 20.34 176.398 19.68 176.236 17.71Z" fill="#404E6B"/>
<path d="M155.091 21.68C155.035 21.6874 154.978 21.6874 154.922 21.68C154.59 21.619 154.256 21.5823 153.922 21.57C153.607 21.57 153.559 21.38 153.422 21C153.294 20.7643 153.22 20.4899 153.209 20.2061C153.197 19.9224 153.249 19.6402 153.357 19.39C153.526 18.92 153.704 18.74 154.309 18.39C155.043 18.01 155.68 18.65 156.123 19.76C156.159 19.8556 156.177 19.9597 156.177 20.065C156.177 20.1703 156.159 20.2743 156.123 20.37C155.97 20.67 155.785 20.96 155.607 21.24C155.43 21.52 155.365 21.73 155.091 21.68Z" fill="#404E6B"/>
<path d="M162.72 17.65C163.414 17.81 164.172 19.37 163.954 19.82C163.64 20.47 162.986 21.26 162.462 21.28C161.938 21.3 161.309 20.51 160.736 20.07C160.706 19.7396 160.736 19.4049 160.826 19.0913C160.915 18.7777 161.061 18.4936 161.252 18.2603C161.444 18.0271 161.675 17.8509 161.929 17.7451C162.184 17.6394 162.454 17.6069 162.72 17.65Z" fill="#404E6B"/>
</g>
<g clip-path="url(#clip1_40_2)">
<path d="M202.14 16.35C202.414 16.44 202.648 16.71 202.947 16.59C203.519 16.36 203.648 16.87 203.753 17.22C203.888 17.5512 203.939 17.9257 203.899 18.2936C203.859 18.6616 203.729 19.0056 203.527 19.28C203.092 19.91 202.769 19.63 202.245 19.57C201.535 19.47 200.632 18.91 200.705 18.01C200.757 17.6603 200.895 17.339 201.1 17.09C201.194 16.8785 201.311 16.6835 201.446 16.51C201.565 16.4195 201.696 16.3583 201.834 16.33C201.935 16.3015 202.041 16.3084 202.14 16.35Z" fill="#404E6B"/>
<path d="M208.584 17.1C208.689 16.94 208.89 16.34 209.189 16.25C211.043 15.5 211.447 17.39 211.366 18.07C211.285 18.75 210.939 19.49 210.648 19.54C209.269 19.77 208.68 19.07 208.584 17.1Z" fill="#404E6B"/>
<path d="M187.317 20C187.269 20 187.212 20 187.172 19.93C186.836 19.8516 186.497 19.7982 186.156 19.77C185.841 19.7 185.801 19.56 185.68 19.17C185.559 18.9286 185.494 18.6496 185.494 18.365C185.494 18.0804 185.559 17.8014 185.68 17.56C185.866 17.09 186.051 16.92 186.664 16.64C187.398 16.29 187.979 17 188.414 18.09C188.448 18.188 188.465 18.2935 188.465 18.4C188.465 18.5065 188.448 18.612 188.414 18.71C188.261 19 188.059 19.28 187.874 19.55C187.688 19.82 187.591 20 187.317 20Z" fill="#404E6B"/>
<path d="M195.075 16.35C195.769 16.54 196.463 18.14 196.237 18.58C195.898 19.21 195.237 20 194.696 20C194.156 20 193.575 19.16 193.011 18.69C192.987 18.3557 193.025 18.0189 193.123 17.706C193.221 17.3931 193.376 17.1125 193.576 16.886C193.776 16.6595 194.015 16.4933 194.275 16.4003C194.535 16.3074 194.809 16.2901 195.075 16.35Z" fill="#404E6B"/>
<path d="M232.778 15.56C233.052 15.65 233.294 15.92 233.584 15.8C234.157 15.56 234.286 16.06 234.391 16.41C234.529 16.7408 234.583 17.1158 234.545 17.4854C234.508 17.855 234.381 18.2018 234.181 18.48C233.745 19.11 233.423 18.84 232.907 18.78C232.189 18.69 231.294 18.14 231.35 17.24C231.401 16.8889 231.536 16.5649 231.737 16.31C231.858 16.13 231.923 15.89 232.084 15.74C232.197 15.6422 232.327 15.5772 232.463 15.55C232.567 15.5215 232.675 15.5249 232.778 15.56Z" fill="#404E6B"/>
<path d="M239.229 16.25C239.334 16.09 239.528 15.49 239.826 15.4C241.681 14.63 242.1 16.52 241.979 17.2C241.858 17.88 241.6 18.62 241.31 18.67C239.931 18.92 239.334 18.22 239.229 16.25Z" fill="#404E6B"/>
<path d="M217.987 19.35C217.929 19.3409 217.873 19.3242 217.818 19.3C217.49 19.2266 217.158 19.1765 216.826 19.15C216.511 19.08 216.463 18.95 216.342 18.56C216.22 18.317 216.155 18.0364 216.155 17.75C216.155 17.4636 216.22 17.1829 216.342 16.94C216.519 16.48 216.705 16.3 217.318 16.01C218.06 15.66 218.681 16.32 219.092 17.45C219.126 17.548 219.143 17.6534 219.143 17.76C219.143 17.8665 219.126 17.972 219.092 18.07C218.924 18.3648 218.743 18.6485 218.552 18.92C218.302 19.27 218.261 19.42 217.987 19.35Z" fill="#404E6B"/>
<path d="M225.721 15.63C226.407 15.82 227.116 17.41 226.89 17.86C226.56 18.49 225.882 19.26 225.366 19.25C224.85 19.24 224.269 18.43 223.673 18C223.645 17.6653 223.68 17.3272 223.776 17.0122C223.871 16.6972 224.024 16.4138 224.222 16.1843C224.421 15.9547 224.659 15.7852 224.919 15.6891C225.179 15.5929 225.454 15.5727 225.721 15.63Z" fill="#404E6B"/>
<path d="M263.415 14.47C263.689 14.56 263.931 14.82 264.222 14.69C264.794 14.45 264.923 14.95 265.028 15.3C265.167 15.6298 265.223 16.0043 265.187 16.3738C265.151 16.7434 265.025 17.0908 264.826 17.37C264.399 18.01 264.068 17.74 263.552 17.68C262.834 17.6 261.939 17.05 261.988 16.15C262.035 15.8004 262.171 15.4783 262.375 15.23C262.496 15.04 262.552 14.8 262.714 14.65C262.827 14.5522 262.956 14.4873 263.093 14.46C263.198 14.4183 263.312 14.4218 263.415 14.47Z" fill="#404E6B"/>
<path d="M269.867 15.08C269.972 14.92 270.165 14.32 270.464 14.22C272.31 13.43 272.738 15.32 272.625 16C272.512 16.68 272.254 17.43 271.972 17.48C270.593 17.74 269.988 17 269.867 15.08Z" fill="#404E6B"/>
<path d="M248.649 18.4C248.592 18.4074 248.536 18.4074 248.479 18.4C248.149 18.3293 247.815 18.2825 247.479 18.26C247.165 18.19 247.125 18.06 246.996 17.67C246.875 17.4282 246.811 17.1494 246.811 16.865C246.811 16.5806 246.875 16.3019 246.996 16.06C247.165 15.59 247.35 15.42 247.963 15.12C248.705 14.76 249.326 15.42 249.754 16.54C249.787 16.638 249.805 16.7435 249.805 16.85C249.805 16.9566 249.787 17.062 249.754 17.16C249.58 17.452 249.395 17.7324 249.197 18C248.963 18.32 248.923 18.46 248.649 18.4Z" fill="#404E6B"/>
<path d="M256.359 14.6C257.044 14.78 257.77 16.37 257.544 16.82C257.213 17.45 256.544 18.23 256.02 18.23C255.496 18.23 254.915 17.42 254.318 17C254.29 16.6648 254.325 16.3261 254.419 16.0101C254.513 15.6941 254.665 15.4091 254.862 15.1772C255.059 14.9453 255.297 14.7726 255.556 14.6725C255.816 14.5725 256.09 14.5476 256.359 14.6Z" fill="#404E6B"/>
<path d="M294.045 13C294.319 13.09 294.561 13.35 294.851 13.22C295.416 12.97 295.553 13.47 295.658 13.82C295.799 14.1479 295.857 14.5212 295.824 14.8907C295.791 15.2602 295.668 15.6086 295.472 15.89C295.045 16.53 294.722 16.27 294.198 16.21C293.48 16.14 292.585 15.6 292.625 14.7C292.675 14.3504 292.807 14.0269 293.004 13.77C293.125 13.59 293.182 13.34 293.335 13.19C293.451 13.089 293.583 13.0208 293.722 12.99C293.829 12.9598 293.939 12.9633 294.045 13Z" fill="#404E6B"/>
<path d="M300.496 13.61C300.609 13.44 300.787 12.84 301.093 12.74C302.932 11.93 303.375 13.81 303.263 14.5C303.174 15.04 302.9 15.93 302.617 15.98C301.238 16.25 300.633 15.58 300.496 13.61Z" fill="#404E6B"/>
<path d="M279.302 17.14C279.254 17.14 279.198 17.14 279.133 17.09C278.801 17.0359 278.468 17.0058 278.133 17C277.819 16.94 277.77 16.81 277.641 16.42C277.516 16.182 277.446 15.9059 277.439 15.622C277.432 15.3381 277.488 15.0572 277.601 14.81C277.77 14.34 277.956 14.16 278.561 13.86C279.302 13.49 279.932 14.14 280.359 15.26C280.393 15.3562 280.41 15.46 280.41 15.565C280.41 15.67 280.393 15.7738 280.359 15.87C280.196 16.1673 280.021 16.4544 279.835 16.73C279.617 17 279.577 17.2 279.302 17.14Z" fill="#404E6B"/>
<path d="M286.988 13.27C287.674 13.44 288.407 15.02 288.182 15.47C287.867 16.1 287.198 16.89 286.674 16.9C286.149 16.91 285.536 16.1 284.964 15.65C284.936 15.3174 284.97 14.9813 285.063 14.6677C285.157 14.354 285.307 14.0712 285.503 13.8411C285.698 13.611 285.934 13.4399 286.192 13.3408C286.449 13.2418 286.722 13.2176 286.988 13.27Z" fill="#404E6B"/>
<path d="M324.658 11.32C324.94 11.41 325.182 11.67 325.464 11.54C326.037 11.28 326.174 11.78 326.271 12.13C326.416 12.4555 326.477 12.828 326.447 13.1977C326.416 13.5675 326.296 13.9171 326.102 14.2C325.682 14.84 325.352 14.59 324.827 14.54C324.11 14.47 323.214 13.95 323.214 13.05C323.259 12.6975 323.388 12.3698 323.585 12.11C323.679 11.8996 323.79 11.7019 323.916 11.52C324.032 11.4273 324.161 11.3597 324.295 11.32C324.414 11.2775 324.539 11.2775 324.658 11.32Z" fill="#404E6B"/>
<path d="M331.118 11.82C331.223 11.65 331.408 11.05 331.706 10.95C333.537 10.12 333.997 11.95 333.884 12.68C333.771 13.41 333.537 14.12 333.255 14.18C331.876 14.46 331.271 13.79 331.118 11.82Z" fill="#404E6B"/>
<path d="M309.948 15.57C309.888 15.5597 309.829 15.543 309.771 15.52C309.442 15.4558 309.111 15.4157 308.779 15.4C308.464 15.34 308.416 15.21 308.287 14.82C308.157 14.5852 308.082 14.3097 308.072 14.025C308.062 13.7404 308.117 13.458 308.23 13.21C308.4 12.74 308.577 12.56 309.182 12.21C309.924 11.84 310.553 12.48 310.988 13.59C311.024 13.6874 311.042 13.7931 311.042 13.9C311.042 14.0069 311.024 14.1126 310.988 14.21C310.835 14.51 310.642 14.79 310.464 15.08C310.287 15.37 310.222 15.62 309.948 15.57Z" fill="#404E6B"/>
<path d="M317.601 11.61C318.295 11.78 319.037 13.35 318.819 13.8C318.661 14.1548 318.447 14.4662 318.189 14.7154C317.931 14.9647 317.635 15.1465 317.319 15.25C316.755 15.25 316.174 14.46 315.601 14.01C315.571 13.6788 315.603 13.3435 315.694 13.0298C315.785 12.7162 315.933 12.4326 316.126 12.2008C316.319 11.969 316.553 11.7952 316.808 11.6928C317.064 11.5904 317.335 11.5621 317.601 11.61Z" fill="#404E6B"/>
<path d="M355.263 9.28997C355.546 9.36997 355.787 9.62997 356.07 9.49997C356.642 9.23997 356.779 9.72997 356.876 10.08C357.022 10.4045 357.085 10.7764 357.056 11.1461C357.027 11.5159 356.908 11.866 356.715 12.15C356.296 12.8 355.973 12.55 355.449 12.5C354.731 12.5 353.836 11.92 353.836 11.02C353.877 10.6682 354.004 10.3403 354.199 10.08C354.312 9.89997 354.368 9.64997 354.521 9.49997C354.635 9.40003 354.764 9.3287 354.9 9.28997C355.019 9.24747 355.145 9.24747 355.263 9.28997Z" fill="#404E6B"/>
<path d="M361.723 9.71001C361.828 9.54001 362.005 8.94001 362.304 8.83001C364.134 7.99001 364.602 9.83001 364.497 10.55C364.417 11.09 364.159 11.99 363.876 12.05C362.505 12.34 361.884 11.68 361.723 9.71001Z" fill="#404E6B"/>
<path d="M340.578 13.68C340.521 13.6874 340.464 13.6874 340.408 13.68C340.077 13.619 339.743 13.5823 339.408 13.57C339.094 13.57 339.045 13.38 338.908 13C338.78 12.7643 338.707 12.4899 338.695 12.2061C338.684 11.9224 338.735 11.6402 338.844 11.39C339.013 10.92 339.19 10.74 339.795 10.39C340.529 10.01 341.166 10.65 341.61 11.76C341.645 11.8556 341.664 11.9597 341.664 12.065C341.664 12.1703 341.645 12.2743 341.61 12.37C341.457 12.67 341.271 12.96 341.094 13.24C340.916 13.52 340.852 13.73 340.578 13.68Z" fill="#404E6B"/>
<path d="M348.207 9.65002C348.9 9.81002 349.658 11.37 349.441 11.82C349.126 12.47 348.473 13.26 347.949 13.28C347.424 13.3 346.795 12.51 346.223 12.07C346.192 11.7396 346.223 11.4049 346.312 11.0913C346.402 10.7777 346.548 10.4936 346.739 10.2603C346.93 10.0271 347.162 9.85088 347.416 9.74514C347.67 9.6394 347.941 9.60687 348.207 9.65002Z" fill="#404E6B"/>
</g>
<g clip-path="url(#clip2_40_2)">
<path d="M387.627 7.73002C387.901 7.82002 388.135 8.09002 388.433 7.97002C389.006 7.74002 389.135 8.25002 389.24 8.60002C389.375 8.93125 389.426 9.3057 389.385 9.67364C389.345 10.0416 389.215 10.3856 389.014 10.66C388.578 11.29 388.256 11.01 387.731 10.95C387.022 10.85 386.119 10.29 386.191 9.39002C386.243 9.04027 386.381 8.71902 386.586 8.47002C386.681 8.2585 386.797 8.06346 386.933 7.89002C387.051 7.79946 387.183 7.73832 387.32 7.71002C387.422 7.68147 387.528 7.68839 387.627 7.73002Z" fill="#404E6B"/>
<path d="M394.07 8.48C394.175 8.32 394.377 7.72 394.675 7.63C396.53 6.88 396.933 8.77 396.853 9.45C396.772 10.13 396.425 10.87 396.135 10.92C394.756 11.15 394.167 10.45 394.07 8.48Z" fill="#404E6B"/>
<path d="M372.804 11.38C372.755 11.38 372.699 11.38 372.659 11.31C372.323 11.2316 371.983 11.1782 371.642 11.15C371.328 11.08 371.288 10.94 371.167 10.55C371.045 10.3086 370.981 10.0296 370.981 9.745C370.981 9.46037 371.045 9.18145 371.167 8.94C371.352 8.47 371.538 8.3 372.151 8.02C372.884 7.67 373.465 8.38 373.901 9.47C373.934 9.56801 373.952 9.67346 373.952 9.78C373.952 9.88655 373.934 9.992 373.901 10.09C373.747 10.38 373.546 10.66 373.36 10.93C373.175 11.2 373.078 11.38 372.804 11.38Z" fill="#404E6B"/>
<path d="M380.562 7.73C381.256 7.92 381.949 9.52 381.723 9.96C381.385 10.59 380.723 11.38 380.183 11.38C379.643 11.38 379.062 10.54 378.497 10.07C378.473 9.73567 378.512 9.39892 378.61 9.08601C378.708 8.77309 378.863 8.49246 379.062 8.26598C379.262 8.03951 379.501 7.87331 379.762 7.78034C380.022 7.68737 380.296 7.67015 380.562 7.73Z" fill="#404E6B"/>
<path d="M418.264 6.93999C418.538 7.02999 418.78 7.29999 419.071 7.17999C419.643 6.93999 419.772 7.43999 419.877 7.78999C420.015 8.12078 420.069 8.49578 420.032 8.8654C419.994 9.23501 419.867 9.58183 419.667 9.85999C419.232 10.49 418.909 10.22 418.393 10.16C417.675 10.07 416.78 9.51999 416.837 8.61999C416.888 8.26889 417.023 7.94488 417.224 7.68999C417.345 7.50999 417.409 7.26999 417.571 7.11999C417.684 7.02218 417.813 6.95724 417.95 6.92999C418.054 6.9015 418.162 6.90493 418.264 6.93999Z" fill="#404E6B"/>
<path d="M424.716 7.63C424.821 7.47 425.014 6.87 425.313 6.78C427.168 6.01 427.587 7.9 427.466 8.58C427.345 9.26 427.087 10 426.797 10.05C425.417 10.3 424.821 9.6 424.716 7.63Z" fill="#404E6B"/>
<path d="M403.474 10.73C403.416 10.7209 403.359 10.7042 403.304 10.68C402.976 10.6066 402.645 10.5565 402.312 10.53C401.998 10.46 401.949 10.33 401.828 9.93998C401.706 9.69701 401.641 9.41637 401.641 9.12998C401.641 8.84359 401.706 8.56294 401.828 8.31998C402.006 7.85998 402.191 7.67998 402.804 7.38998C403.546 7.03998 404.167 7.69998 404.578 8.82998C404.612 8.92798 404.63 9.03343 404.63 9.13998C404.63 9.24653 404.612 9.35198 404.578 9.44998C404.41 9.74476 404.23 10.0285 404.038 10.3C403.788 10.65 403.748 10.8 403.474 10.73Z" fill="#404E6B"/>
<path d="M411.208 7.01003C411.893 7.20003 412.603 8.79003 412.377 9.24003C412.046 9.87003 411.369 10.64 410.853 10.63C410.337 10.62 409.756 9.81003 409.159 9.38003C409.132 9.04531 409.167 8.70721 409.262 8.39219C409.358 8.07718 409.51 7.79381 409.709 7.56427C409.907 7.33472 410.146 7.16524 410.406 7.06909C410.666 6.97293 410.94 6.95272 411.208 7.01003Z" fill="#404E6B"/>
<path d="M448.902 5.85001C449.176 5.94001 449.418 6.20001 449.708 6.07001C450.281 5.83001 450.41 6.33001 450.515 6.68001C450.654 7.00983 450.709 7.38426 450.673 7.75384C450.637 8.12341 450.512 8.47076 450.313 8.75001C449.886 9.39001 449.555 9.12001 449.039 9.06001C448.321 8.98001 447.426 8.43001 447.474 7.53001C447.522 7.18037 447.657 6.85834 447.861 6.61001C447.982 6.42001 448.039 6.18001 448.2 6.03001C448.313 5.9322 448.443 5.86726 448.579 5.84001C448.685 5.79827 448.798 5.80179 448.902 5.85001Z" fill="#404E6B"/>
<path d="M455.353 6.46003C455.458 6.30003 455.652 5.70003 455.95 5.60003C457.797 4.81003 458.224 6.70003 458.111 7.38003C457.999 8.06003 457.741 8.81003 457.458 8.86003C456.079 9.12003 455.474 8.38003 455.353 6.46003Z" fill="#404E6B"/>
<path d="M434.135 9.78001C434.079 9.78738 434.022 9.78738 433.966 9.78001C433.635 9.70926 433.301 9.66251 432.966 9.64001C432.651 9.57001 432.611 9.44001 432.482 9.05001C432.361 8.80817 432.298 8.5294 432.298 8.24501C432.298 7.96062 432.361 7.68186 432.482 7.44001C432.652 6.97001 432.837 6.80001 433.45 6.50001C434.192 6.14001 434.813 6.80001 435.24 7.92001C435.274 8.01801 435.291 8.12346 435.291 8.23001C435.291 8.33656 435.274 8.44201 435.24 8.54001C435.067 8.83203 434.881 9.11243 434.684 9.38001C434.45 9.70001 434.41 9.84001 434.135 9.78001Z" fill="#404E6B"/>
<path d="M441.845 5.97999C442.531 6.15999 443.256 7.74999 443.031 8.19999C442.7 8.82999 442.031 9.60999 441.506 9.60999C440.982 9.60999 440.402 8.79999 439.805 8.37999C439.777 8.04481 439.811 7.70614 439.906 7.3901C440 7.07406 440.151 6.78909 440.349 6.55718C440.546 6.32528 440.783 6.15263 441.043 6.05255C441.302 5.95247 441.577 5.92765 441.845 5.97999Z" fill="#404E6B"/>
<path d="M479.531 4.38C479.805 4.47 480.047 4.73 480.338 4.6C480.902 4.35 481.039 4.85 481.144 5.2C481.285 5.52788 481.343 5.90116 481.31 6.27067C481.277 6.64019 481.155 6.9886 480.959 7.27C480.531 7.91 480.209 7.65 479.684 7.59C478.967 7.52 478.071 6.98 478.112 6.08C478.161 5.73044 478.293 5.40688 478.491 5.15C478.612 4.97 478.668 4.72 478.821 4.57C478.937 4.46905 479.069 4.40078 479.209 4.37C479.315 4.33983 479.426 4.34327 479.531 4.38Z" fill="#404E6B"/>
<path d="M485.983 4.99004C486.096 4.82004 486.273 4.22003 486.58 4.12003C488.418 3.31003 488.862 5.19004 488.749 5.88004C488.66 6.42004 488.386 7.31004 488.104 7.36004C486.725 7.63004 486.12 6.96004 485.983 4.99004Z" fill="#404E6B"/>
<path d="M464.789 8.52C464.741 8.52 464.684 8.52 464.62 8.47C464.288 8.41588 463.954 8.38583 463.62 8.38C463.305 8.32 463.257 8.19 463.128 7.8C463.003 7.56199 462.933 7.28594 462.926 7.00201C462.919 6.71808 462.974 6.43718 463.087 6.19C463.257 5.72 463.442 5.54 464.047 5.24C464.789 4.87 465.418 5.52 465.846 6.64C465.879 6.73617 465.897 6.84002 465.897 6.945C465.897 7.04999 465.879 7.15384 465.846 7.25C465.682 7.54734 465.508 7.83437 465.321 8.11C465.104 8.38 465.063 8.58 464.789 8.52Z" fill="#404E6B"/>
<path d="M472.475 4.65C473.16 4.82 473.894 6.4 473.668 6.85C473.354 7.48 472.684 8.27 472.16 8.28C471.636 8.29 471.023 7.48 470.45 7.03C470.422 6.69744 470.456 6.36132 470.55 6.04766C470.643 5.734 470.794 5.45119 470.989 5.22111C471.185 4.99104 471.421 4.81987 471.678 4.72083C471.936 4.6218 472.208 4.59756 472.475 4.65Z" fill="#404E6B"/>
<path d="M510.145 2.7C510.427 2.79 510.669 3.05 510.951 2.92C511.524 2.66 511.661 3.16 511.757 3.51C511.902 3.83554 511.963 4.20797 511.933 4.57774C511.903 4.94752 511.783 5.29711 511.588 5.58C511.169 6.22 510.838 5.97 510.314 5.92C509.596 5.85 508.701 5.33 508.701 4.43C508.745 4.07746 508.875 3.7498 509.072 3.49C509.165 3.2796 509.276 3.08186 509.403 2.9C509.519 2.8073 509.647 2.73967 509.782 2.7C509.9 2.65749 510.026 2.65749 510.145 2.7Z" fill="#404E6B"/>
<path d="M516.604 3.20003C516.709 3.03003 516.895 2.43003 517.193 2.33003C519.024 1.50003 519.483 3.33003 519.37 4.06003C519.258 4.79003 519.024 5.50003 518.741 5.56003C517.362 5.84003 516.758 5.17003 516.604 3.20003Z" fill="#404E6B"/>
<path d="M495.435 6.95001C495.374 6.9397 495.315 6.92297 495.257 6.90001C494.929 6.83576 494.598 6.79569 494.265 6.78001C493.951 6.72001 493.902 6.59001 493.773 6.20001C493.643 5.96519 493.569 5.68973 493.559 5.40505C493.549 5.12038 493.604 4.83796 493.717 4.59001C493.886 4.12001 494.064 3.94001 494.669 3.59001C495.41 3.22001 496.04 3.86001 496.475 4.97001C496.511 5.06738 496.529 5.17308 496.529 5.28001C496.529 5.38694 496.511 5.49264 496.475 5.59001C496.322 5.89001 496.128 6.17001 495.951 6.46001C495.773 6.75001 495.709 7.00001 495.435 6.95001Z" fill="#404E6B"/>
<path d="M503.088 2.99C503.782 3.16 504.523 4.73001 504.306 5.18001C504.148 5.53482 503.933 5.84623 503.675 6.09545C503.418 6.34466 503.122 6.52651 502.806 6.63C502.241 6.63 501.661 5.84001 501.088 5.39001C501.058 5.05878 501.09 4.72346 501.181 4.40982C501.272 4.09618 501.419 3.81257 501.613 3.58079C501.806 3.34901 502.039 3.17523 502.295 3.07281C502.551 2.9704 502.822 2.94207 503.088 2.99Z" fill="#404E6B"/>
<path d="M540.75 0.669978C541.032 0.749978 541.274 1.00998 541.556 0.879978C542.129 0.619978 542.266 1.10998 542.363 1.45998C542.508 1.78454 542.571 2.1564 542.542 2.52615C542.513 2.8959 542.395 3.24602 542.201 3.52998C541.782 4.17998 541.46 3.92998 540.935 3.87998C540.218 3.87998 539.322 3.29998 539.322 2.39998C539.364 2.04822 539.49 1.72034 539.685 1.45998C539.798 1.27998 539.855 1.02998 540.008 0.879978C540.122 0.780037 540.251 0.708701 540.387 0.669978C540.505 0.627475 540.631 0.627475 540.75 0.669978Z" fill="#404E6B"/>
<path d="M547.21 1.09001C547.314 0.920011 547.492 0.320011 547.79 0.210011C549.621 -0.629989 550.089 1.21001 549.984 1.93001C549.903 2.47001 549.645 3.37001 549.363 3.43001C547.992 3.72001 547.371 3.06001 547.21 1.09001Z" fill="#404E6B"/>
<path d="M526.064 5.05999C526.008 5.06736 525.951 5.06736 525.895 5.05999C525.563 4.999 525.23 4.96227 524.895 4.94999C524.58 4.94999 524.532 4.75999 524.395 4.37999C524.267 4.14435 524.193 3.86986 524.182 3.58613C524.17 3.3024 524.222 3.0202 524.33 2.76999C524.5 2.29999 524.677 2.11999 525.282 1.76999C526.016 1.38999 526.653 2.02999 527.096 3.13999C527.132 3.23565 527.15 3.3397 527.15 3.44499C527.15 3.55029 527.132 3.65433 527.096 3.74999C526.943 4.04999 526.758 4.33999 526.58 4.61999C526.403 4.89999 526.338 5.10999 526.064 5.05999Z" fill="#404E6B"/>
<path d="M533.693 1.03003C534.387 1.19003 535.145 2.75003 534.927 3.20003C534.613 3.85003 533.959 4.64003 533.435 4.66003C532.911 4.68003 532.282 3.89003 531.709 3.45003C531.679 3.11958 531.71 2.78487 531.799 2.47131C531.888 2.15774 532.034 1.87356 532.226 1.64031C532.417 1.40706 532.648 1.23089 532.903 1.12514C533.157 1.0194 533.427 0.986874 533.693 1.03003Z" fill="#404E6B"/>
</g>
<defs>
<clipPath id="clip0_40_2">
<rect width="11.38" height="179.027" fill="white" transform="matrix(0 -1 1 0 0 28)"/>
</clipPath>
<clipPath id="clip1_40_2">
<rect width="11.38" height="179.027" fill="white" transform="matrix(0 -1 1 0 185.487 20)"/>
</clipPath>
<clipPath id="clip2_40_2">
<rect width="11.38" height="179.027" fill="white" transform="matrix(0 -1 1 0 370.973 11.38)"/>
</clipPath>
</defs>
</svg>
