<svg width="50" height="50" viewBox="0 0 50 50" fill="none" xmlns="http://www.w3.org/2000/svg">
<circle cx="25" cy="25" r="25" fill="#404E6B"/>
<path d="M15.1786 19.6428C12.712 19.6428 10.7143 17.645 10.7143 15.1785C10.7143 12.712 12.712 10.7142 15.1786 10.7142C17.6451 10.7142 19.6429 12.712 19.6429 15.1785C19.6429 17.645 17.6451 19.6428 15.1786 19.6428ZM35.7143 19.6428C33.2478 19.6428 31.25 17.645 31.25 15.1785C31.25 12.712 33.2478 10.7142 35.7143 10.7142C38.1808 10.7142 40.1786 12.712 40.1786 15.1785C40.1786 17.645 38.1808 19.6428 35.7143 19.6428ZM7.14285 27.3828C7.14285 24.0959 9.81026 21.4285 13.0971 21.4285H15.4799C16.3672 21.4285 17.2098 21.6238 17.9687 21.9698C17.8962 22.3716 17.8627 22.7901 17.8627 23.2142C17.8627 25.3459 18.8002 27.26 20.279 28.5714C20.2679 28.5714 20.2567 28.5714 20.24 28.5714H8.33147C7.67857 28.5714 7.14285 28.0357 7.14285 27.3828ZM29.76 28.5714C29.7489 28.5714 29.7377 28.5714 29.721 28.5714C31.2054 27.26 32.1373 25.3459 32.1373 23.2142C32.1373 22.7901 32.0982 22.3772 32.0312 21.9698C32.7902 21.6183 33.6328 21.4285 34.5201 21.4285H36.9029C40.1897 21.4285 42.8571 24.0959 42.8571 27.3828C42.8571 28.0412 42.3214 28.5714 41.6685 28.5714H29.76ZM30.3571 23.2142C30.3571 26.1718 27.9576 28.5714 25 28.5714C22.0424 28.5714 19.6429 26.1718 19.6429 23.2142C19.6429 20.2566 22.0424 17.8571 25 17.8571C27.9576 17.8571 30.3571 20.2566 30.3571 23.2142ZM14.2857 37.7957C14.2857 33.6886 17.6172 30.3571 21.7243 30.3571H28.2757C32.3828 30.3571 35.7143 33.6886 35.7143 37.7957C35.7143 38.616 35.0502 39.2857 34.2243 39.2857H15.7757C14.9554 39.2857 14.2857 38.6216 14.2857 37.7957Z" fill="white"/>
</svg>
