<svg width="30" height="63" viewBox="0 0 30 63" fill="none" xmlns="http://www.w3.org/2000/svg">
<g clip-path="url(#clip0_23_428)">
<path d="M3.98185 20.7342C3.88876 21.0717 3.65604 21.3626 3.74913 21.7233C3.9353 22.4447 3.49313 22.5844 3.17896 22.7124C2.8878 22.8702 2.55151 22.9239 2.22568 22.8647C1.89985 22.8054 1.60399 22.6368 1.38701 22.3866C0.851755 21.828 1.09611 21.444 1.16593 20.8041C1.27065 19.9197 1.78264 18.8725 2.56225 18.9307C2.87736 19.012 3.1585 19.1912 3.36514 19.4426C3.5164 19.5939 3.72585 19.687 3.85385 19.8848C3.93021 20.0344 3.98132 20.1956 4.00512 20.3619C4.02715 20.4861 4.01917 20.6138 3.98185 20.7342Z" fill="#404E6B"/>
<path d="M3.15569 28.6932C3.29532 28.8445 3.80731 29.0889 3.87712 29.4729C4.48219 31.8001 2.81824 32.2306 2.23644 32.056C1.65464 31.8815 1.00302 31.5092 0.944843 31.1601C0.805211 29.4496 1.43356 28.6932 3.15569 28.6932Z" fill="#404E6B"/>
<path d="M1.14265 2.39587C1.14265 2.33769 1.14265 2.26787 1.14265 2.18642C1.2132 1.80143 1.26369 1.41304 1.29392 1.02282C1.36374 0.638827 1.4801 0.592282 1.82918 0.441014C2.03431 0.282671 2.28409 0.192956 2.54309 0.184601C2.80209 0.176247 3.05714 0.249677 3.27205 0.39447C3.67931 0.627191 3.81894 0.859911 4.05166 1.62789C4.28438 2.39587 3.7724 3.30348 2.7717 3.78055C2.68899 3.8234 2.59721 3.84576 2.50407 3.84576C2.41093 3.84576 2.31914 3.8234 2.23644 3.78055C1.98045 3.57111 1.74773 3.32675 1.51501 3.09403C1.28229 2.86131 1.08447 2.73331 1.14265 2.39587Z" fill="#404E6B"/>
<path d="M4.14474 12.0305C3.9702 12.88 2.5506 13.7061 2.17825 13.4152C1.55201 12.9541 1.13368 12.2638 1.01465 11.4953C1.01465 10.7971 1.77099 10.1222 2.17825 9.43571C3.88875 9.4008 4.27274 11.1113 4.14474 12.0305Z" fill="#404E6B"/>
<path d="M12.0689 53.1289C12.3365 53.3151 12.4994 53.6526 12.8718 53.6409C13.5699 53.6409 13.5932 54.1064 13.6281 54.4322C13.7151 54.7526 13.6871 55.0933 13.549 55.3952C13.4108 55.6971 13.1712 55.941 12.8718 56.0845C12.162 56.4452 11.8129 56.0845 11.1962 55.8052C10.3235 55.4212 9.53223 54.4554 9.93949 53.7805C10.1374 53.5357 10.4054 53.3571 10.7075 53.2686C10.8876 53.1532 11.0785 53.0558 11.2776 52.9777C11.4319 52.9545 11.5888 52.9545 11.7431 52.9777C11.8622 53.0012 11.974 53.0531 12.0689 53.1289Z" fill="#404E6B"/>
<path d="M19.3879 55.3165C19.5392 55.1885 19.8185 54.6882 20.1792 54.63C22.4249 54.1064 22.8787 55.7238 22.7158 56.3288C22.5529 56.9339 22.1922 57.4925 21.8315 57.5855C20.0628 57.7135 19.353 57.0386 19.3879 55.3165Z" fill="#404E6B"/>
<path d="M0.944839 40.2478V40.0384C1.04956 39.5962 1.01466 39.2006 1.08447 38.7817C1.15429 38.3628 1.27065 38.3395 1.60809 38.1999C1.81054 38.0461 2.05781 37.9628 2.31207 37.9628C2.56634 37.9628 2.8136 38.0461 3.01605 38.1999C3.42331 38.4326 3.56295 38.6653 3.81894 39.3635C4.07493 40.0616 3.55131 40.9809 2.65534 41.5278C2.57162 41.5672 2.48023 41.5876 2.38771 41.5876C2.29518 41.5876 2.20379 41.5672 2.12008 41.5278C1.85072 41.3227 1.59424 41.1012 1.3521 40.8645C1.03793 40.6551 0.944839 40.5969 0.944839 40.2478Z" fill="#404E6B"/>
<path d="M6.05306 48.556C6.23923 49.2542 5.72725 50.7552 5.25017 50.7901C4.83467 50.8038 4.42171 50.7205 4.04402 50.5468C3.66632 50.3731 3.33429 50.1138 3.07423 49.7894C2.84605 48.9738 2.87859 48.1072 3.16732 47.311C3.71691 47.1203 4.31798 47.1423 4.85211 47.3728C5.38624 47.6032 5.8147 48.0254 6.05306 48.556Z" fill="#404E6B"/>
<path d="M30.0349 55.5375C29.9418 53.827 19.4112 48.9981 18.7247 49.7195C18.0382 50.4409 18.3989 61.5534 19.3414 62.4377C19.9348 62.9729 30.0349 57.0618 30.0349 55.5375Z" fill="#404E6B"/>
</g>
<defs>
<clipPath id="clip0_23_428">
<rect width="29.0552" height="62.3109" fill="white" transform="translate(0.944839 0.161743)"/>
</clipPath>
</defs>
</svg>
