<svg width="500" height="28" viewBox="0 0 500 28" fill="none" xmlns="http://www.w3.org/2000/svg">
<g clip-path="url(#clip0_40_2)">
<path d="M15.1395 24.35C15.3888 24.44 15.6014 24.71 15.8727 24.59C16.3932 24.36 16.5105 24.87 16.6058 25.22C16.7289 25.5512 16.7751 25.9257 16.7385 26.2936C16.7018 26.6616 16.5839 27.0056 16.4005 27.28C16.0046 27.91 15.7114 27.63 15.2348 27.57C14.5897 27.47 13.7685 26.91 13.8345 26.01C13.8821 25.6603 14.0075 25.339 14.1938 25.09C14.2796 24.8785 14.3856 24.6835 14.509 24.51C14.6167 24.4195 14.7362 24.3583 14.8609 24.33C14.9534 24.3015 15.0498 24.3084 15.1395 24.35Z" fill="#404E6B"/>
<path d="M20.9974 25.1C21.0927 24.94 21.276 24.34 21.5472 24.25C23.2335 23.5 23.6001 25.39 23.5267 26.07C23.4534 26.75 23.1382 27.49 22.8742 27.54C21.6206 27.77 21.0854 27.07 20.9974 25.1Z" fill="#404E6B"/>
<path d="M1.66424 28C1.62025 28 1.56893 28 1.53228 27.93C1.22697 27.8516 0.918493 27.7982 0.608508 27.77C0.32258 27.7 0.285923 27.56 0.17595 27.17C0.0654313 26.9286 0.00683594 26.6496 0.00683594 26.365C0.00683594 26.0804 0.0654313 25.8014 0.17595 25.56C0.344575 25.09 0.513199 24.92 1.07039 24.64C1.73756 24.29 2.26542 25 2.66132 26.09C2.69198 26.188 2.70778 26.2935 2.70778 26.4C2.70778 26.5065 2.69198 26.612 2.66132 26.71C2.52203 27 2.33874 27.28 2.17011 27.55C2.00149 27.82 1.91351 28 1.66424 28Z" fill="#404E6B"/>
<path d="M8.71714 24.35C9.34765 24.54 9.97816 26.14 9.77288 26.58C9.46495 27.21 8.86377 28 8.37256 28C7.88135 28 7.35348 27.16 6.84028 26.69C6.81827 26.3557 6.85317 26.0189 6.94225 25.706C7.03132 25.3931 7.17218 25.1125 7.35383 24.886C7.53548 24.6595 7.75302 24.4933 7.98949 24.4003C8.22596 24.3074 8.47498 24.2901 8.71714 24.35Z" fill="#404E6B"/>
<path d="M42.9918 23.56C43.2411 23.65 43.461 23.92 43.725 23.8C44.2455 23.56 44.3628 24.06 44.4581 24.41C44.5837 24.7408 44.6327 25.1158 44.5987 25.4854C44.5647 25.855 44.4492 26.2018 44.2675 26.48C43.8716 27.11 43.5784 26.84 43.1091 26.78C42.4566 26.69 41.6428 26.14 41.6942 25.24C41.7405 24.8889 41.8631 24.5649 42.0461 24.31C42.156 24.13 42.2147 23.89 42.3613 23.74C42.4643 23.6422 42.582 23.5772 42.7059 23.55C42.8004 23.5215 42.8985 23.5249 42.9918 23.56Z" fill="#404E6B"/>
<path d="M48.857 24.25C48.9523 24.09 49.1283 23.49 49.3996 23.4C51.0858 22.63 51.467 24.52 51.3571 25.2C51.2471 25.88 51.0125 26.62 50.7485 26.67C49.4949 26.92 48.9523 26.22 48.857 24.25Z" fill="#404E6B"/>
<path d="M29.5459 27.35C29.4934 27.3409 29.4418 27.3242 29.3919 27.3C29.0937 27.2266 28.7926 27.1765 28.4902 27.15C28.2042 27.08 28.1602 26.95 28.0503 26.56C27.9391 26.317 27.8802 26.0364 27.8802 25.75C27.8802 25.4636 27.9391 25.1829 28.0503 24.94C28.2116 24.48 28.3802 24.3 28.9374 24.01C29.6119 23.66 30.1764 24.32 30.5503 25.45C30.581 25.548 30.5968 25.6534 30.5968 25.76C30.5968 25.8665 30.581 25.972 30.5503 26.07C30.3975 26.3648 30.2335 26.6485 30.0591 26.92C29.8318 27.27 29.7952 27.42 29.5459 27.35Z" fill="#404E6B"/>
<path d="M36.5768 23.63C37.2 23.82 37.8451 25.41 37.6399 25.86C37.3393 26.49 36.7234 27.26 36.2542 27.25C35.785 27.24 35.2571 26.43 34.7146 26C34.6895 25.6653 34.7215 25.3272 34.8082 25.0122C34.8949 24.6972 35.0338 24.4138 35.2142 24.1843C35.3946 23.9547 35.6114 23.7852 35.8478 23.6891C36.0842 23.5929 36.3337 23.5727 36.5768 23.63Z" fill="#404E6B"/>
<path d="M70.8442 22.47C71.0934 22.56 71.3134 22.82 71.5773 22.69C72.0978 22.45 72.2151 22.95 72.3105 23.3C72.437 23.6298 72.4872 24.0043 72.4545 24.3738C72.4218 24.7434 72.3077 25.0908 72.1272 25.37C71.7386 26.01 71.438 25.74 70.9688 25.68C70.3163 25.6 69.5025 25.05 69.5465 24.15C69.5897 23.8004 69.7129 23.4783 69.8984 23.23C70.0084 23.04 70.0597 22.8 70.2063 22.65C70.3093 22.5522 70.427 22.4873 70.5509 22.46C70.6467 22.4183 70.75 22.4218 70.8442 22.47Z" fill="#404E6B"/>
<path d="M76.7094 23.08C76.8047 22.92 76.9806 22.32 77.2519 22.22C78.9308 21.43 79.3194 23.32 79.2167 24C79.1141 24.68 78.8795 25.43 78.6229 25.48C77.3692 25.74 76.8193 25 76.7094 23.08Z" fill="#404E6B"/>
<path d="M57.4202 26.4C57.369 26.4074 57.3174 26.4074 57.2662 26.4C56.9655 26.3293 56.6619 26.2825 56.3571 26.26C56.0712 26.19 56.0346 26.06 55.9173 25.67C55.8075 25.4282 55.7494 25.1494 55.7494 24.865C55.7494 24.5806 55.8075 24.3019 55.9173 24.06C56.0712 23.59 56.2398 23.42 56.797 23.12C57.4715 22.76 58.036 23.42 58.4246 24.54C58.4553 24.638 58.4711 24.7435 58.4711 24.85C58.4711 24.9566 58.4553 25.062 58.4246 25.16C58.267 25.452 58.0982 25.7324 57.9187 26C57.7061 26.32 57.6695 26.46 57.4202 26.4Z" fill="#404E6B"/>
<path d="M64.4291 22.6C65.0523 22.78 65.7121 24.37 65.5068 24.82C65.2062 25.45 64.5977 26.23 64.1212 26.23C63.6446 26.23 63.1168 25.42 62.5742 25C62.5488 24.6648 62.5801 24.3261 62.6658 24.0101C62.7515 23.6941 62.8893 23.4091 63.0685 23.1772C63.2478 22.9453 63.4636 22.7726 63.6995 22.6725C63.9354 22.5725 64.185 22.5476 64.4291 22.6Z" fill="#404E6B"/>
<path d="M98.6892 21C98.9384 21.09 99.1584 21.35 99.4223 21.22C99.9355 20.97 100.06 21.47 100.155 21.82C100.284 22.1479 100.337 22.5212 100.307 22.8907C100.276 23.2602 100.165 23.6086 99.9868 23.89C99.5983 24.53 99.305 24.27 98.8285 24.21C98.176 24.14 97.3622 23.6 97.3988 22.7C97.4439 22.3504 97.5638 22.0269 97.7434 21.77C97.8534 21.59 97.9047 21.34 98.044 21.19C98.1492 21.089 98.2693 21.0208 98.3959 20.99C98.4927 20.9598 98.5936 20.9633 98.6892 21Z" fill="#404E6B"/>
<path d="M104.554 21.61C104.657 21.44 104.818 20.84 105.097 20.74C106.768 19.93 107.172 21.81 107.069 22.5C106.988 23.04 106.739 23.93 106.482 23.98C105.229 24.25 104.679 23.58 104.554 21.61Z" fill="#404E6B"/>
<path d="M85.2872 25.14C85.2432 25.14 85.1919 25.14 85.1332 25.09C84.8317 25.0359 84.5282 25.0058 84.2241 25C83.9382 24.94 83.8942 24.81 83.7769 24.42C83.6632 24.182 83.5997 23.9059 83.5932 23.622C83.5867 23.3381 83.6376 23.0572 83.7402 22.81C83.8942 22.34 84.0628 22.16 84.6127 21.86C85.2872 21.49 85.859 22.14 86.2476 23.26C86.2785 23.3562 86.2944 23.46 86.2944 23.565C86.2944 23.67 86.2785 23.7738 86.2476 23.87C86.0994 24.1673 85.9403 24.4544 85.7711 24.73C85.5731 25 85.5365 25.2 85.2872 25.14Z" fill="#404E6B"/>
<path d="M92.2741 21.27C92.8973 21.44 93.5644 23.02 93.3591 23.47C93.0732 24.1 92.4647 24.89 91.9882 24.9C91.5116 24.91 90.9544 24.1 90.4339 23.65C90.4084 23.3174 90.4393 22.9813 90.5242 22.6677C90.6092 22.354 90.7459 22.0712 90.9238 21.8411C91.1016 21.611 91.316 21.4399 91.5501 21.3408C91.7843 21.2418 92.032 21.2176 92.2741 21.27Z" fill="#404E6B"/>
<path d="M126.519 19.32C126.776 19.41 126.996 19.67 127.253 19.54C127.773 19.28 127.898 19.78 127.986 20.13C128.117 20.4555 128.173 20.828 128.145 21.1977C128.118 21.5675 128.009 21.9171 127.832 22.2C127.451 22.84 127.15 22.59 126.673 22.54C126.021 22.47 125.207 21.95 125.207 21.05C125.248 20.6975 125.365 20.3698 125.544 20.11C125.629 19.8996 125.73 19.7019 125.845 19.52C125.951 19.4273 126.067 19.3597 126.19 19.32C126.297 19.2775 126.412 19.2775 126.519 19.32Z" fill="#404E6B"/>
<path d="M132.392 19.82C132.487 19.65 132.656 19.05 132.927 18.95C134.591 18.12 135.009 19.95 134.907 20.68C134.804 21.41 134.591 22.12 134.335 22.18C133.081 22.46 132.531 21.79 132.392 19.82Z" fill="#404E6B"/>
<path d="M113.147 23.57C113.092 23.5597 113.038 23.543 112.986 23.52C112.687 23.4558 112.386 23.4157 112.084 23.4C111.798 23.34 111.754 23.21 111.637 22.82C111.518 22.5852 111.451 22.3097 111.442 22.025C111.432 21.7404 111.482 21.458 111.585 21.21C111.739 20.74 111.9 20.56 112.45 20.21C113.125 19.84 113.697 20.48 114.093 21.59C114.125 21.6874 114.142 21.7931 114.142 21.9C114.142 22.0069 114.125 22.1126 114.093 22.21C113.953 22.51 113.777 22.79 113.616 23.08C113.455 23.37 113.396 23.62 113.147 23.57Z" fill="#404E6B"/>
<path d="M120.104 19.61C120.735 19.78 121.409 21.35 121.211 21.8C121.068 22.1548 120.873 22.4662 120.638 22.7154C120.404 22.9647 120.135 23.1465 119.848 23.25C119.335 23.25 118.807 22.46 118.286 22.01C118.259 21.6788 118.288 21.3435 118.371 21.0298C118.453 20.7162 118.587 20.4326 118.763 20.2008C118.939 19.969 119.151 19.7952 119.383 19.6928C119.616 19.5904 119.863 19.5621 120.104 19.61Z" fill="#404E6B"/>
<path d="M154.342 17.29C154.599 17.37 154.819 17.63 155.076 17.5C155.596 17.24 155.721 17.73 155.809 18.08C155.941 18.4045 155.998 18.7764 155.972 19.1461C155.946 19.5159 155.838 19.866 155.662 20.15C155.281 20.8 154.988 20.55 154.511 20.5C153.859 20.5 153.045 19.92 153.045 19.02C153.082 18.6682 153.197 18.3403 153.375 18.08C153.477 17.9 153.529 17.65 153.668 17.5C153.772 17.4 153.889 17.3287 154.013 17.29C154.12 17.2475 154.235 17.2475 154.342 17.29Z" fill="#404E6B"/>
<path d="M160.215 17.71C160.31 17.54 160.472 16.94 160.743 16.83C162.407 15.99 162.832 17.83 162.737 18.55C162.664 19.09 162.429 19.99 162.172 20.05C160.926 20.34 160.362 19.68 160.215 17.71Z" fill="#404E6B"/>
<path d="M140.992 21.68C140.941 21.6874 140.889 21.6874 140.838 21.68C140.537 21.619 140.233 21.5823 139.929 21.57C139.643 21.57 139.599 21.38 139.474 21C139.358 20.7643 139.291 20.4899 139.281 20.2061C139.27 19.9224 139.317 19.6402 139.416 19.39C139.57 18.92 139.731 18.74 140.281 18.39C140.948 18.01 141.527 18.65 141.93 19.76C141.962 19.8556 141.979 19.9597 141.979 20.065C141.979 20.1703 141.962 20.2743 141.93 20.37C141.791 20.67 141.622 20.96 141.461 21.24C141.3 21.52 141.241 21.73 140.992 21.68Z" fill="#404E6B"/>
<path d="M147.927 17.65C148.558 17.81 149.247 19.37 149.049 19.82C148.763 20.47 148.169 21.26 147.693 21.28C147.216 21.3 146.644 20.51 146.124 20.07C146.096 19.7396 146.124 19.4049 146.205 19.0913C146.287 18.7777 146.419 18.4936 146.593 18.2603C146.767 18.0271 146.977 17.8509 147.209 17.7451C147.44 17.6394 147.686 17.6069 147.927 17.65Z" fill="#404E6B"/>
</g>
<g clip-path="url(#clip1_40_2)">
<path d="M183.764 16.35C184.013 16.44 184.226 16.71 184.497 16.59C185.017 16.36 185.135 16.87 185.23 17.22C185.353 17.5512 185.399 17.9257 185.363 18.2936C185.326 18.6616 185.208 19.0056 185.025 19.28C184.629 19.91 184.336 19.63 183.859 19.57C183.214 19.47 182.393 18.91 182.459 18.01C182.506 17.6603 182.632 17.339 182.818 17.09C182.904 16.8785 183.01 16.6835 183.133 16.51C183.241 16.4195 183.36 16.3583 183.485 16.33C183.578 16.3015 183.674 16.3084 183.764 16.35Z" fill="#404E6B"/>
<path d="M189.622 17.1C189.717 16.94 189.9 16.34 190.171 16.25C191.858 15.5 192.224 17.39 192.151 18.07C192.078 18.75 191.762 19.49 191.498 19.54C190.245 19.77 189.709 19.07 189.622 17.1Z" fill="#404E6B"/>
<path d="M170.288 20C170.244 20 170.193 20 170.156 19.93C169.851 19.8516 169.543 19.7982 169.233 19.77C168.947 19.7 168.91 19.56 168.8 19.17C168.69 18.9286 168.631 18.6496 168.631 18.365C168.631 18.0804 168.69 17.8014 168.8 17.56C168.969 17.09 169.137 16.92 169.695 16.64C170.362 16.29 170.89 17 171.285 18.09C171.316 18.188 171.332 18.2935 171.332 18.4C171.332 18.5065 171.316 18.612 171.285 18.71C171.146 19 170.963 19.28 170.794 19.55C170.626 19.82 170.538 20 170.288 20Z" fill="#404E6B"/>
<path d="M177.341 16.35C177.972 16.54 178.602 18.14 178.397 18.58C178.089 19.21 177.488 20 176.997 20C176.505 20 175.978 19.16 175.464 18.69C175.442 18.3557 175.477 18.0189 175.566 17.706C175.655 17.3931 175.796 17.1125 175.978 16.886C176.16 16.6595 176.377 16.4933 176.614 16.4003C176.85 16.3074 177.099 16.2901 177.341 16.35Z" fill="#404E6B"/>
<path d="M211.616 15.56C211.865 15.65 212.085 15.92 212.349 15.8C212.87 15.56 212.987 16.06 213.082 16.41C213.208 16.7408 213.257 17.1158 213.223 17.4854C213.189 17.855 213.073 18.2018 212.892 18.48C212.496 19.11 212.203 18.84 211.733 18.78C211.081 18.69 210.267 18.14 210.318 17.24C210.365 16.8889 210.487 16.5649 210.67 16.31C210.78 16.13 210.839 15.89 210.985 15.74C211.088 15.6422 211.206 15.5772 211.33 15.55C211.425 15.5215 211.523 15.5249 211.616 15.56Z" fill="#404E6B"/>
<path d="M217.481 16.25C217.576 16.09 217.752 15.49 218.024 15.4C219.71 14.63 220.091 16.52 219.981 17.2C219.871 17.88 219.637 18.62 219.373 18.67C218.119 18.92 217.576 18.22 217.481 16.25Z" fill="#404E6B"/>
<path d="M198.17 19.35C198.118 19.3409 198.066 19.3242 198.016 19.3C197.718 19.2266 197.417 19.1765 197.114 19.15C196.828 19.08 196.784 18.95 196.674 18.56C196.563 18.317 196.504 18.0364 196.504 17.75C196.504 17.4636 196.563 17.1829 196.674 16.94C196.836 16.48 197.004 16.3 197.562 16.01C198.236 15.66 198.801 16.32 199.174 17.45C199.205 17.548 199.221 17.6534 199.221 17.76C199.221 17.8665 199.205 17.972 199.174 18.07C199.022 18.3648 198.858 18.6485 198.683 18.92C198.456 19.27 198.419 19.42 198.17 19.35Z" fill="#404E6B"/>
<path d="M205.201 15.63C205.824 15.82 206.469 17.41 206.264 17.86C205.963 18.49 205.348 19.26 204.878 19.25C204.409 19.24 203.881 18.43 203.339 18C203.314 17.6653 203.346 17.3272 203.432 17.0122C203.519 16.6972 203.658 16.4138 203.838 16.1843C204.019 15.9547 204.236 15.7852 204.472 15.6891C204.708 15.5929 204.958 15.5727 205.201 15.63Z" fill="#404E6B"/>
<path d="M239.468 14.47C239.718 14.56 239.938 14.82 240.201 14.69C240.722 14.45 240.839 14.95 240.935 15.3C241.061 15.6298 241.111 16.0043 241.079 16.3738C241.046 16.7434 240.932 17.0908 240.751 17.37C240.363 18.01 240.062 17.74 239.593 17.68C238.94 17.6 238.127 17.05 238.171 16.15C238.214 15.8004 238.337 15.4783 238.523 15.23C238.633 15.04 238.684 14.8 238.83 14.65C238.933 14.5522 239.051 14.4873 239.175 14.46C239.271 14.4183 239.374 14.4218 239.468 14.47Z" fill="#404E6B"/>
<path d="M245.333 15.08C245.429 14.92 245.605 14.32 245.876 14.22C247.555 13.43 247.944 15.32 247.841 16C247.738 16.68 247.504 17.43 247.247 17.48C245.993 17.74 245.443 17 245.333 15.08Z" fill="#404E6B"/>
<path d="M226.044 18.4C225.993 18.4074 225.942 18.4074 225.89 18.4C225.59 18.3293 225.286 18.2825 224.981 18.26C224.695 18.19 224.659 18.06 224.541 17.67C224.432 17.4282 224.374 17.1494 224.374 16.865C224.374 16.5806 224.432 16.3019 224.541 16.06C224.695 15.59 224.864 15.42 225.421 15.12C226.096 14.76 226.66 15.42 227.049 16.54C227.079 16.638 227.095 16.7435 227.095 16.85C227.095 16.9566 227.079 17.062 227.049 17.16C226.891 17.452 226.722 17.7324 226.543 18C226.33 18.32 226.294 18.46 226.044 18.4Z" fill="#404E6B"/>
<path d="M233.053 14.6C233.676 14.78 234.336 16.37 234.131 16.82C233.83 17.45 233.222 18.23 232.745 18.23C232.269 18.23 231.741 17.42 231.198 17C231.173 16.6648 231.204 16.3261 231.29 16.0101C231.376 15.6941 231.513 15.4091 231.693 15.1772C231.872 14.9453 232.088 14.7726 232.324 14.6725C232.56 14.5725 232.809 14.5476 233.053 14.6Z" fill="#404E6B"/>
<path d="M267.313 13C267.563 13.09 267.783 13.35 268.046 13.22C268.56 12.97 268.684 13.47 268.78 13.82C268.908 14.1479 268.961 14.5212 268.931 14.8907C268.901 15.2602 268.789 15.6086 268.611 15.89C268.222 16.53 267.929 16.27 267.453 16.21C266.8 16.14 265.986 15.6 266.023 14.7C266.068 14.3504 266.188 14.0269 266.368 13.77C266.478 13.59 266.529 13.34 266.668 13.19C266.773 13.089 266.893 13.0208 267.02 12.99C267.117 12.9598 267.218 12.9633 267.313 13Z" fill="#404E6B"/>
<path d="M273.178 13.61C273.281 13.44 273.442 12.84 273.721 12.74C275.393 11.93 275.796 13.81 275.693 14.5C275.613 15.04 275.363 15.93 275.107 15.98C273.853 16.25 273.303 15.58 273.178 13.61Z" fill="#404E6B"/>
<path d="M253.911 17.14C253.867 17.14 253.816 17.14 253.757 17.09C253.456 17.0359 253.152 17.0058 252.848 17C252.562 16.94 252.518 16.81 252.401 16.42C252.287 16.182 252.224 15.9059 252.217 15.622C252.211 15.3381 252.262 15.0572 252.364 14.81C252.518 14.34 252.687 14.16 253.237 13.86C253.911 13.49 254.483 14.14 254.872 15.26C254.903 15.3562 254.919 15.46 254.919 15.565C254.919 15.67 254.903 15.7738 254.872 15.87C254.724 16.1673 254.564 16.4544 254.395 16.73C254.197 17 254.161 17.2 253.911 17.14Z" fill="#404E6B"/>
<path d="M260.898 13.27C261.521 13.44 262.189 15.02 261.983 15.47C261.697 16.1 261.089 16.89 260.612 16.9C260.136 16.91 259.579 16.1 259.058 15.65C259.033 15.3174 259.063 14.9813 259.148 14.6677C259.233 14.354 259.37 14.0712 259.548 13.8411C259.726 13.611 259.94 13.4399 260.174 13.3408C260.408 13.2418 260.656 13.2176 260.898 13.27Z" fill="#404E6B"/>
<path d="M295.144 11.32C295.4 11.41 295.62 11.67 295.877 11.54C296.397 11.28 296.522 11.78 296.61 12.13C296.741 12.4555 296.797 12.828 296.77 13.1977C296.742 13.5675 296.633 13.9171 296.456 14.2C296.075 14.84 295.774 14.59 295.298 14.54C294.645 14.47 293.831 13.95 293.831 13.05C293.872 12.6975 293.989 12.3698 294.169 12.11C294.253 11.8996 294.354 11.7019 294.469 11.52C294.575 11.4273 294.691 11.3597 294.814 11.32C294.921 11.2775 295.036 11.2775 295.144 11.32Z" fill="#404E6B"/>
<path d="M301.016 11.82C301.111 11.65 301.28 11.05 301.551 10.95C303.216 10.12 303.633 11.95 303.531 12.68C303.428 13.41 303.216 14.12 302.959 14.18C301.705 14.46 301.155 13.79 301.016 11.82Z" fill="#404E6B"/>
<path d="M281.771 15.57C281.716 15.5597 281.662 15.543 281.61 15.52C281.311 15.4558 281.01 15.4157 280.708 15.4C280.422 15.34 280.378 15.21 280.261 14.82C280.142 14.5852 280.075 14.3097 280.066 14.025C280.057 13.7404 280.106 13.458 280.209 13.21C280.363 12.74 280.525 12.56 281.074 12.21C281.749 11.84 282.321 12.48 282.717 13.59C282.749 13.6874 282.766 13.7931 282.766 13.9C282.766 14.0069 282.749 14.1126 282.717 14.21C282.577 14.51 282.401 14.79 282.24 15.08C282.079 15.37 282.02 15.62 281.771 15.57Z" fill="#404E6B"/>
<path d="M288.729 11.61C289.359 11.78 290.034 13.35 289.836 13.8C289.692 14.1548 289.497 14.4662 289.263 14.7154C289.028 14.9647 288.759 15.1465 288.472 15.25C287.959 15.25 287.431 14.46 286.91 14.01C286.883 13.6788 286.912 13.3435 286.995 13.0298C287.077 12.7162 287.212 12.4326 287.387 12.2008C287.563 11.969 287.775 11.7952 288.008 11.6928C288.24 11.5904 288.487 11.5621 288.729 11.61Z" fill="#404E6B"/>
<path d="M322.967 9.28997C323.223 9.36997 323.443 9.62997 323.7 9.49997C324.22 9.23997 324.345 9.72997 324.433 10.08C324.565 10.4045 324.622 10.7764 324.596 11.1461C324.57 11.5159 324.462 11.866 324.286 12.15C323.905 12.8 323.612 12.55 323.135 12.5C322.483 12.5 321.669 11.92 321.669 11.02C321.706 10.6682 321.821 10.3403 321.999 10.08C322.102 9.89997 322.153 9.64997 322.292 9.49997C322.396 9.40003 322.513 9.3287 322.637 9.28997C322.744 9.24747 322.859 9.24747 322.967 9.28997Z" fill="#404E6B"/>
<path d="M328.839 9.71001C328.934 9.54001 329.096 8.94001 329.367 8.83001C331.031 7.99001 331.456 9.83001 331.361 10.55C331.288 11.09 331.053 11.99 330.797 12.05C329.55 12.34 328.986 11.68 328.839 9.71001Z" fill="#404E6B"/>
<path d="M309.616 13.68C309.565 13.6874 309.513 13.6874 309.462 13.68C309.161 13.619 308.857 13.5823 308.553 13.57C308.267 13.57 308.223 13.38 308.098 13C307.982 12.7643 307.915 12.4899 307.905 12.2061C307.894 11.9224 307.941 11.6402 308.04 11.39C308.194 10.92 308.355 10.74 308.905 10.39C309.572 10.01 310.151 10.65 310.554 11.76C310.587 11.8556 310.603 11.9597 310.603 12.065C310.603 12.1703 310.587 12.2743 310.554 12.37C310.415 12.67 310.246 12.96 310.085 13.24C309.924 13.52 309.865 13.73 309.616 13.68Z" fill="#404E6B"/>
<path d="M316.552 9.65002C317.182 9.81002 317.871 11.37 317.673 11.82C317.387 12.47 316.793 13.26 316.317 13.28C315.84 13.3 315.269 12.51 314.748 12.07C314.72 11.7396 314.748 11.4049 314.829 11.0913C314.911 10.7777 315.043 10.4936 315.217 10.2603C315.391 10.0271 315.602 9.85088 315.833 9.74514C316.064 9.6394 316.31 9.60687 316.552 9.65002Z" fill="#404E6B"/>
</g>
<g clip-path="url(#clip2_40_2)">
<path d="M352.388 7.73002C352.637 7.82002 352.85 8.09002 353.121 7.97002C353.641 7.74002 353.759 8.25002 353.854 8.60002C353.977 8.93125 354.023 9.3057 353.987 9.67364C353.95 10.0416 353.832 10.3856 353.649 10.66C353.253 11.29 352.96 11.01 352.483 10.95C351.838 10.85 351.017 10.29 351.083 9.39002C351.13 9.04027 351.256 8.71902 351.442 8.47002C351.528 8.2585 351.634 8.06346 351.757 7.89002C351.865 7.79946 351.984 7.73832 352.109 7.71002C352.202 7.68147 352.298 7.68839 352.388 7.73002Z" fill="#404E6B"/>
<path d="M358.246 8.48C358.341 8.32 358.524 7.72 358.796 7.63C360.482 6.88 360.848 8.77 360.775 9.45C360.702 10.13 360.386 10.87 360.123 10.92C358.869 11.15 358.334 10.45 358.246 8.48Z" fill="#404E6B"/>
<path d="M338.913 11.38C338.869 11.38 338.817 11.38 338.781 11.31C338.475 11.2316 338.167 11.1782 337.857 11.15C337.571 11.08 337.534 10.94 337.424 10.55C337.314 10.3086 337.255 10.0296 337.255 9.745C337.255 9.46037 337.314 9.18145 337.424 8.94C337.593 8.47 337.761 8.3 338.319 8.02C338.986 7.67 339.514 8.38 339.91 9.47C339.94 9.56801 339.956 9.67346 339.956 9.78C339.956 9.88655 339.94 9.992 339.91 10.09C339.77 10.38 339.587 10.66 339.418 10.93C339.25 11.2 339.162 11.38 338.913 11.38Z" fill="#404E6B"/>
<path d="M345.965 7.73C346.596 7.92 347.226 9.52 347.021 9.96C346.713 10.59 346.112 11.38 345.621 11.38C345.13 11.38 344.602 10.54 344.089 10.07C344.067 9.73567 344.101 9.39892 344.191 9.08601C344.28 8.77309 344.42 8.49246 344.602 8.26598C344.784 8.03951 345.001 7.87331 345.238 7.78034C345.474 7.68737 345.723 7.67015 345.965 7.73Z" fill="#404E6B"/>
<path d="M380.24 6.93999C380.489 7.02999 380.709 7.29999 380.973 7.17999C381.494 6.93999 381.611 7.43999 381.706 7.78999C381.832 8.12078 381.881 8.49578 381.847 8.8654C381.813 9.23501 381.697 9.58183 381.516 9.85999C381.12 10.49 380.827 10.22 380.357 10.16C379.705 10.07 378.891 9.51999 378.942 8.61999C378.989 8.26889 379.111 7.94488 379.294 7.68999C379.404 7.50999 379.463 7.26999 379.61 7.11999C379.713 7.02218 379.83 6.95724 379.954 6.92999C380.049 6.9015 380.147 6.90493 380.24 6.93999Z" fill="#404E6B"/>
<path d="M386.105 7.63C386.201 7.47 386.377 6.87 386.648 6.78C388.334 6.01 388.715 7.9 388.605 8.58C388.495 9.26 388.261 10 387.997 10.05C386.743 10.3 386.201 9.6 386.105 7.63Z" fill="#404E6B"/>
<path d="M366.794 10.73C366.742 10.7209 366.69 10.7042 366.64 10.68C366.342 10.6066 366.041 10.5565 365.738 10.53C365.453 10.46 365.409 10.33 365.299 9.93998C365.187 9.69701 365.128 9.41637 365.128 9.12998C365.128 8.84359 365.187 8.56294 365.299 8.31998C365.46 7.85998 365.628 7.67998 366.186 7.38998C366.86 7.03998 367.425 7.69998 367.799 8.82998C367.829 8.92798 367.845 9.03343 367.845 9.13998C367.845 9.24653 367.829 9.35198 367.799 9.44998C367.646 9.74476 367.482 10.0285 367.307 10.3C367.08 10.65 367.043 10.8 366.794 10.73Z" fill="#404E6B"/>
<path d="M373.825 7.01003C374.448 7.20003 375.093 8.79003 374.888 9.24003C374.588 9.87003 373.972 10.64 373.503 10.63C373.033 10.62 372.505 9.81003 371.963 9.38003C371.938 9.04531 371.97 8.70721 372.057 8.39219C372.143 8.07718 372.282 7.79381 372.462 7.56427C372.643 7.33472 372.86 7.16524 373.096 7.06909C373.333 6.97293 373.582 6.95272 373.825 7.01003Z" fill="#404E6B"/>
<path d="M408.092 5.85001C408.342 5.94001 408.562 6.20001 408.826 6.07001C409.346 5.83001 409.463 6.33001 409.559 6.68001C409.685 7.00983 409.736 7.38426 409.703 7.75384C409.67 8.12341 409.556 8.47076 409.375 8.75001C408.987 9.39001 408.686 9.12001 408.217 9.06001C407.565 8.98001 406.751 8.43001 406.795 7.53001C406.838 7.18037 406.961 6.85834 407.147 6.61001C407.257 6.42001 407.308 6.18001 407.455 6.03001C407.558 5.9322 407.675 5.86726 407.799 5.84001C407.895 5.79827 407.998 5.80179 408.092 5.85001Z" fill="#404E6B"/>
<path d="M413.958 6.46003C414.053 6.30003 414.229 5.70003 414.5 5.60003C416.179 4.81003 416.568 6.70003 416.465 7.38003C416.362 8.06003 416.128 8.81003 415.871 8.86003C414.617 9.12003 414.068 8.38003 413.958 6.46003Z" fill="#404E6B"/>
<path d="M394.669 9.78001C394.617 9.78738 394.566 9.78738 394.515 9.78001C394.214 9.70926 393.91 9.66251 393.605 9.64001C393.32 9.57001 393.283 9.44001 393.166 9.05001C393.056 8.80817 392.998 8.5294 392.998 8.24501C392.998 7.96062 393.056 7.68186 393.166 7.44001C393.32 6.97001 393.488 6.80001 394.045 6.50001C394.72 6.14001 395.284 6.80001 395.673 7.92001C395.704 8.01801 395.719 8.12346 395.719 8.23001C395.719 8.33656 395.704 8.44201 395.673 8.54001C395.515 8.83203 395.346 9.11243 395.167 9.38001C394.954 9.70001 394.918 9.84001 394.669 9.78001Z" fill="#404E6B"/>
<path d="M401.677 5.97999C402.301 6.15999 402.96 7.74999 402.755 8.19999C402.455 8.82999 401.846 9.60999 401.369 9.60999C400.893 9.60999 400.365 8.79999 399.823 8.37999C399.797 8.04481 399.828 7.70614 399.914 7.3901C400 7.07406 400.138 6.78909 400.317 6.55718C400.496 6.32528 400.712 6.15263 400.948 6.05255C401.184 5.95247 401.433 5.92765 401.677 5.97999Z" fill="#404E6B"/>
<path d="M435.937 4.38C436.187 4.47 436.407 4.73 436.671 4.6C437.184 4.35 437.308 4.85 437.404 5.2C437.532 5.52788 437.585 5.90116 437.555 6.27067C437.525 6.64019 437.413 6.9886 437.235 7.27C436.847 7.91 436.553 7.65 436.077 7.59C435.424 7.52 434.61 6.98 434.647 6.08C434.692 5.73044 434.812 5.40688 434.992 5.15C435.102 4.97 435.153 4.72 435.292 4.57C435.397 4.46905 435.518 4.40078 435.644 4.37C435.741 4.33983 435.842 4.34327 435.937 4.38Z" fill="#404E6B"/>
<path d="M441.803 4.99004C441.905 4.82004 442.067 4.22003 442.345 4.12003C444.017 3.31003 444.42 5.19004 444.317 5.88004C444.237 6.42004 443.987 7.31004 443.731 7.36004C442.477 7.63004 441.927 6.96004 441.803 4.99004Z" fill="#404E6B"/>
<path d="M422.535 8.52C422.491 8.52 422.44 8.52 422.382 8.47C422.08 8.41588 421.776 8.38583 421.472 8.38C421.186 8.32 421.142 8.19 421.025 7.8C420.912 7.56199 420.848 7.28594 420.841 7.00201C420.835 6.71808 420.886 6.43718 420.989 6.19C421.142 5.72 421.311 5.54 421.861 5.24C422.535 4.87 423.107 5.52 423.496 6.64C423.527 6.73617 423.543 6.84002 423.543 6.945C423.543 7.04999 423.527 7.15384 423.496 7.25C423.348 7.54734 423.189 7.83437 423.019 8.11C422.821 8.38 422.785 8.58 422.535 8.52Z" fill="#404E6B"/>
<path d="M429.522 4.65C430.146 4.82 430.813 6.4 430.607 6.85C430.321 7.48 429.713 8.27 429.236 8.28C428.76 8.29 428.203 7.48 427.682 7.03C427.657 6.69744 427.688 6.36132 427.772 6.04766C427.857 5.734 427.994 5.45119 428.172 5.22111C428.35 4.99104 428.564 4.81987 428.798 4.72083C429.033 4.6218 429.28 4.59756 429.522 4.65Z" fill="#404E6B"/>
<path d="M463.768 2.7C464.024 2.79 464.244 3.05 464.501 2.92C465.021 2.66 465.146 3.16 465.234 3.51C465.366 3.83554 465.421 4.20797 465.394 4.57774C465.366 4.94752 465.257 5.29711 465.08 5.58C464.699 6.22 464.398 5.97 463.922 5.92C463.269 5.85 462.455 5.33 462.455 4.43C462.496 4.07746 462.613 3.7498 462.793 3.49C462.878 3.2796 462.978 3.08186 463.093 2.9C463.199 2.8073 463.316 2.73967 463.438 2.7C463.546 2.65749 463.66 2.65749 463.768 2.7Z" fill="#404E6B"/>
<path d="M469.64 3.20003C469.736 3.03003 469.904 2.43003 470.175 2.33003C471.84 1.50003 472.258 3.33003 472.155 4.06003C472.052 4.79003 471.84 5.50003 471.583 5.56003C470.329 5.84003 469.78 5.17003 469.64 3.20003Z" fill="#404E6B"/>
<path d="M450.395 6.95001C450.34 6.9397 450.286 6.92297 450.234 6.90001C449.935 6.83576 449.634 6.79569 449.332 6.78001C449.046 6.72001 449.002 6.59001 448.885 6.20001C448.767 5.96519 448.699 5.68973 448.69 5.40505C448.681 5.12038 448.731 4.83796 448.834 4.59001C448.987 4.12001 449.149 3.94001 449.699 3.59001C450.373 3.22001 450.945 3.86001 451.341 4.97001C451.373 5.06738 451.39 5.17308 451.39 5.28001C451.39 5.38694 451.373 5.49264 451.341 5.59001C451.202 5.89001 451.026 6.17001 450.864 6.46001C450.703 6.75001 450.644 7.00001 450.395 6.95001Z" fill="#404E6B"/>
<path d="M457.353 2.99C457.983 3.16 458.658 4.73001 458.46 5.18001C458.316 5.53482 458.121 5.84623 457.887 6.09545C457.652 6.34466 457.383 6.52651 457.096 6.63C456.583 6.63 456.055 5.84001 455.534 5.39001C455.507 5.05878 455.536 4.72346 455.619 4.40982C455.701 4.09618 455.836 3.81257 456.011 3.58079C456.187 3.34901 456.399 3.17523 456.632 3.07281C456.864 2.9704 457.111 2.94207 457.353 2.99Z" fill="#404E6B"/>
<path d="M491.591 0.669978C491.847 0.749978 492.067 1.00998 492.324 0.879978C492.844 0.619978 492.969 1.10998 493.057 1.45998C493.19 1.78454 493.246 2.1564 493.22 2.52615C493.194 2.8959 493.086 3.24602 492.91 3.52998C492.529 4.17998 492.236 3.92998 491.759 3.87998C491.107 3.87998 490.293 3.29998 490.293 2.39998C490.331 2.04822 490.446 1.72034 490.623 1.45998C490.726 1.27998 490.777 1.02998 490.916 0.879978C491.02 0.780037 491.137 0.708701 491.261 0.669978C491.369 0.627475 491.483 0.627475 491.591 0.669978Z" fill="#404E6B"/>
<path d="M497.463 1.09001C497.559 0.920011 497.72 0.320011 497.991 0.210011C499.655 -0.629989 500.081 1.21001 499.985 1.93001C499.912 2.47001 499.677 3.37001 499.421 3.43001C498.174 3.72001 497.61 3.06001 497.463 1.09001Z" fill="#404E6B"/>
<path d="M478.24 5.05999C478.189 5.06736 478.137 5.06736 478.086 5.05999C477.785 4.999 477.481 4.96227 477.177 4.94999C476.891 4.94999 476.847 4.75999 476.722 4.37999C476.606 4.14435 476.539 3.86986 476.529 3.58613C476.519 3.3024 476.565 3.0202 476.664 2.76999C476.818 2.29999 476.979 2.11999 477.529 1.76999C478.196 1.38999 478.775 2.02999 479.179 3.13999C479.211 3.23565 479.227 3.3397 479.227 3.44499C479.227 3.55029 479.211 3.65433 479.179 3.74999C479.039 4.04999 478.871 4.33999 478.709 4.61999C478.548 4.89999 478.489 5.10999 478.24 5.05999Z" fill="#404E6B"/>
<path d="M485.176 1.03003C485.806 1.19003 486.495 2.75003 486.297 3.20003C486.011 3.85003 485.418 4.64003 484.941 4.66003C484.465 4.68003 483.893 3.89003 483.372 3.45003C483.344 3.11958 483.372 2.78487 483.454 2.47131C483.535 2.15774 483.668 1.87356 483.841 1.64031C484.015 1.40706 484.226 1.23089 484.457 1.12514C484.688 1.0194 484.934 0.986874 485.176 1.03003Z" fill="#404E6B"/>
</g>
<defs>
<clipPath id="clip0_40_2">
<rect width="11.38" height="162.752" fill="white" transform="matrix(0 -1 1 0 0 28)"/>
</clipPath>
<clipPath id="clip1_40_2">
<rect width="11.38" height="162.752" fill="white" transform="matrix(0 -1 1 0 168.624 20)"/>
</clipPath>
<clipPath id="clip2_40_2">
<rect width="11.38" height="162.752" fill="white" transform="matrix(0 -1 1 0 337.248 11.38)"/>
</clipPath>
</defs>
</svg>
