<svg width="50" height="57" viewBox="0 0 50 57" fill="none" xmlns="http://www.w3.org/2000/svg">
<path d="M25.0015 56.7941C24.4817 56.7938 23.9712 56.6571 23.5209 56.3974L1.48065 43.6802C1.02999 43.4193 0.655918 43.0444 0.396017 42.5932C0.136116 42.1419 -0.00046271 41.6302 1.17776e-06 41.1095V15.675C0.000598915 15.1553 0.137681 14.6448 0.397529 14.1947C0.657378 13.7447 1.03088 13.3707 1.48065 13.1103L23.5209 0.393084C23.9713 0.135498 24.4811 0 25 0C25.5189 0 26.0287 0.135498 26.4791 0.393084L48.5224 13.1103C48.9714 13.3713 49.3441 13.7455 49.6034 14.1955C49.8627 14.6455 49.9994 15.1556 50 15.675V41.1246C49.9994 41.644 49.8627 42.1541 49.6034 42.6041C49.3441 43.0541 48.9714 43.4283 48.5224 43.6893L26.4791 56.4065C26.0292 56.6634 25.5196 56.7971 25.0015 56.7941ZM25.0015 1.79198C24.8007 1.79037 24.603 1.84265 24.4292 1.94338L2.38903 14.6606C2.21364 14.7615 2.06823 14.9072 1.96767 15.0828C1.86711 15.2584 1.81503 15.4575 1.81675 15.6598V41.1095C1.81663 41.3103 1.86948 41.5075 1.96996 41.6814C2.07043 41.8552 2.21499 41.9995 2.38903 42.0996L24.4292 54.8169C24.603 54.9165 24.7997 54.9689 25 54.9689C25.2003 54.9689 25.397 54.9165 25.5708 54.8169L47.614 42.0996C47.7873 41.9989 47.931 41.8544 48.0309 41.6806C48.1308 41.5069 48.1834 41.3099 48.1833 41.1095V15.675C48.1834 15.4745 48.1308 15.2776 48.0309 15.1038C47.931 14.9301 47.7873 14.7856 47.614 14.6849L25.5708 1.9676C25.4003 1.85876 25.2036 1.79808 25.0015 1.79198Z" fill="white"/>
<path d="M25.0015 49.8874C24.5157 49.8887 24.0382 49.7612 23.6177 49.518L7.38204 40.1315C6.96361 39.8892 6.61613 39.5413 6.37436 39.1226C6.13259 38.7038 6.00499 38.229 6.00433 37.7455V19.0087C6.00636 18.5256 6.13524 18.0515 6.37809 17.6338C6.62093 17.2161 6.96922 16.8695 7.38809 16.6288L23.6177 7.24223C24.0363 7.00125 24.5109 6.87442 24.9939 6.87442C25.4769 6.87442 25.9515 7.00125 26.3701 7.24223L42.6088 16.6288C43.0266 16.871 43.3736 17.2185 43.6153 17.6366C43.8571 18.0547 43.985 18.5288 43.9865 19.0117V37.7606C43.9853 38.244 43.8574 38.7186 43.6157 39.1372C43.374 39.5559 43.0268 39.9039 42.6088 40.1466L26.3701 49.5332C25.9526 49.7687 25.4808 49.8908 25.0015 49.8874ZM25.0015 8.70775C24.837 8.70796 24.6753 8.75072 24.5322 8.83189L8.29647 18.2184C8.15419 18.3009 8.03599 18.4193 7.95365 18.5616C7.87131 18.704 7.82769 18.8655 7.82714 19.0299V37.7788C7.82716 37.9438 7.87053 38.1058 7.9529 38.2488C8.03527 38.3917 8.15374 38.5105 8.29647 38.5933L24.5261 47.9435C24.6679 48.0268 24.8294 48.0708 24.9939 48.0708C25.1584 48.0708 25.3199 48.0268 25.4617 47.9435L41.7004 38.557C41.8429 38.4747 41.9613 38.3564 42.0437 38.214C42.126 38.0716 42.1695 37.91 42.1698 37.7455V19.0087C42.1686 18.8444 42.1247 18.6832 42.0425 18.5409C41.9602 18.3986 41.8423 18.2802 41.7004 18.1972L25.4617 8.8107C25.3203 8.73487 25.1619 8.69632 25.0015 8.69866V8.70775Z" fill="white"/>
<path d="M24.9985 42.9717C24.5509 42.9712 24.1113 42.8532 23.7237 42.6295L13.2986 36.613C12.9121 36.3885 12.5912 36.0664 12.3681 35.6791C12.1449 35.2918 12.0273 34.8527 12.0269 34.4057V22.3818C12.027 21.9347 12.1445 21.4955 12.3677 21.1082C12.5908 20.7208 12.9119 20.3988 13.2986 20.1745L23.7267 14.1398C24.1139 13.9166 24.553 13.7991 25 13.7991C25.4469 13.7991 25.886 13.9166 26.2732 14.1398L36.6983 20.1593C37.088 20.3843 37.4113 20.7085 37.6352 21.0988C37.8591 21.4892 37.9756 21.9318 37.9731 22.3818V34.4027C37.9727 34.8497 37.855 35.2888 37.6319 35.6761C37.4087 36.0634 37.0879 36.3854 36.7014 36.61L26.2732 42.6295C25.8857 42.8536 25.4461 42.9716 24.9985 42.9717ZM24.9985 15.6144C24.871 15.615 24.7459 15.6483 24.6351 15.7113L14.207 21.7308C14.0961 21.7959 14.0043 21.8888 13.9405 22.0003C13.8768 22.1119 13.8434 22.2382 13.8436 22.3667V34.4027C13.8437 34.5311 13.8772 34.6573 13.9409 34.7688C14.0047 34.8803 14.0963 34.9733 14.207 35.0385L24.6351 41.058C24.746 41.1221 24.8719 41.1558 25 41.1558C25.1281 41.1558 25.2539 41.1221 25.3648 41.058L35.793 35.0385C35.9036 34.9733 35.9953 34.8803 36.059 34.7688C36.1227 34.6573 36.1563 34.5311 36.1563 34.4027V22.3818C36.1569 22.2529 36.1232 22.1262 36.0589 22.0145C35.9945 21.9028 35.9017 21.8101 35.7899 21.746L25.3648 15.7204C25.254 15.6539 25.1277 15.6174 24.9985 15.6144Z" fill="white"/>
</svg>
